<svg width="141" height="42" viewBox="0 0 141 42" fill="none" xmlns="http://www.w3.org/2000/svg">
<path fill-rule="evenodd" clip-rule="evenodd" d="M55.5469 33.86C55.6069 33.34 55.6369 32.84 55.6369 32.36C55.6369 30.68 55.2769 29.21 54.5569 27.95C53.8569 26.69 52.8769 25.72 51.6169 25.04C50.3569 24.36 48.9169 24.02 47.2969 24.02C45.6369 24.02 44.1669 24.37 42.8869 25.07C41.6069 25.77 40.6069 26.77 39.8869 28.07C39.1869 29.37 38.8369 30.89 38.8369 32.63C38.8369 34.37 39.1969 35.89 39.9169 37.19C40.6369 38.49 41.6369 39.49 42.9169 40.19C44.1969 40.89 45.6569 41.24 47.2969 41.24C48.6569 41.24 49.8869 40.99 50.9869 40.49C52.0869 39.99 52.9969 39.3 53.7169 38.42C54.4569 37.54 54.9669 36.55 55.2469 35.45H49.7869C49.2869 36.53 48.3969 37.07 47.1169 37.07C46.2569 37.07 45.5269 36.8 44.9269 36.26C44.3469 35.7 44.0169 34.9 43.9369 33.86H55.5469ZM49.4869 28.91C50.0869 29.43 50.3869 30.13 50.3869 31.01H43.9669C44.1069 30.09 44.4669 29.38 45.0469 28.88C45.6469 28.38 46.3769 28.13 47.2369 28.13C48.1369 28.13 48.8869 28.39 49.4869 28.91Z" fill="black"/>
<path d="M70.7032 24.26L67.0732 36.2L63.4432 24.26H57.9532L63.8932 41H70.2232L76.1632 24.26H70.7032Z" fill="black"/>
<path fill-rule="evenodd" clip-rule="evenodd" d="M95.2125 33.86C95.2725 33.34 95.3025 32.84 95.3025 32.36C95.3025 30.68 94.9425 29.21 94.2225 27.95C93.5225 26.69 92.5425 25.72 91.2825 25.04C90.0225 24.36 88.5825 24.02 86.9625 24.02C85.3025 24.02 83.8325 24.37 82.5525 25.07C81.2725 25.77 80.2725 26.77 79.5525 28.07C78.8525 29.37 78.5025 30.89 78.5025 32.63C78.5025 34.37 78.8625 35.89 79.5825 37.19C80.3025 38.49 81.3025 39.49 82.5825 40.19C83.8625 40.89 85.3225 41.24 86.9625 41.24C88.3225 41.24 89.5525 40.99 90.6525 40.49C91.7525 39.99 92.6625 39.3 93.3825 38.42C94.1225 37.54 94.6325 36.55 94.9125 35.45H89.4525C88.9525 36.53 88.0625 37.07 86.7825 37.07C85.9225 37.07 85.1925 36.8 84.5925 36.26C84.0125 35.7 83.6825 34.9 83.6025 33.86H95.2125ZM89.1525 28.91C89.7525 29.43 90.0525 30.13 90.0525 31.01H83.6325C83.7725 30.09 84.1325 29.38 84.7125 28.88C85.3125 28.38 86.0425 28.13 86.9025 28.13C87.8025 28.13 88.5525 28.39 89.1525 28.91Z" fill="black"/>
<path d="M114.089 26C112.929 24.72 111.369 24.08 109.409 24.08C108.309 24.08 107.319 24.3 106.439 24.74C105.559 25.16 104.859 25.74 104.339 26.48V24.26H99.2088V41H104.339V31.91C104.339 30.79 104.629 29.92 105.209 29.3C105.789 28.68 106.569 28.37 107.549 28.37C108.529 28.37 109.309 28.68 109.889 29.3C110.469 29.92 110.759 30.79 110.759 31.91V41H115.859V31.22C115.859 29 115.269 27.26 114.089 26Z" fill="black"/>
<path d="M129.954 41V36.65H128.124C127.564 36.65 127.164 36.54 126.924 36.32C126.684 36.1 126.564 35.74 126.564 35.24V28.52H129.924V24.26H126.564V20.18H121.434V24.26H119.394V28.52H121.434V35.18C121.434 37.24 121.954 38.73 122.994 39.65C124.034 40.55 125.484 41 127.344 41H129.954Z" fill="black"/>
<path d="M134.371 21.74C134.951 22.26 135.691 22.52 136.591 22.52C137.471 22.52 138.191 22.26 138.751 21.74C139.331 21.2 139.621 20.54 139.621 19.76C139.621 18.96 139.331 18.3 138.751 17.78C138.191 17.24 137.471 16.97 136.591 16.97C135.691 16.97 134.951 17.24 134.371 17.78C133.811 18.3 133.531 18.96 133.531 19.76C133.531 20.54 133.811 21.2 134.371 21.74Z" fill="black"/>
<path d="M134.011 41H139.141V24.26H134.011V41Z" fill="black"/>
<path fill-rule="evenodd" clip-rule="evenodd" d="M35.599 28.2522C37.1284 25.5143 38 22.3589 38 19C38 8.50659 29.4934 0 19 0C8.50659 0 0 8.50659 0 19C0 28.7699 7.37402 36.8175 16.86 37.8808V19.94H24.75C26.97 19.94 28.91 20.38 30.57 21.26C32.23 22.14 33.51 23.38 34.41 24.98C34.9877 25.9722 35.384 27.0629 35.599 28.2522ZM28.95 34.97C27.87 36.03 26.36 36.56 24.42 36.56H21.99V24.32H24.42C26.36 24.32 27.87 24.86 28.95 25.94C30.03 27.02 30.57 28.53 30.57 30.47C30.57 32.41 30.03 33.91 28.95 34.97Z" fill="#FF4070"/>
<path d="M35.599 28.2523C32.3505 34.0677 26.1345 38 19 38C18.2765 38 17.5625 37.9596 16.86 37.8808V41H24.75C26.95 41 28.88 40.56 30.54 39.68C32.22 38.8 33.51 37.56 34.41 35.96C35.33 34.36 35.79 32.53 35.79 30.47C35.79 29.6962 35.7263 28.9569 35.599 28.2523Z" fill="#FF4070"/>
</svg>
