<svg width="141" height="42" viewBox="0 0 141 42" fill="none" xmlns="http://www.w3.org/2000/svg">
<g clip-path="url(#clip0_436_28)">
<circle cx="19" cy="19" r="19" fill="#FF4070"/>
<path d="M24.75 19.94C26.97 19.94 28.91 20.38 30.57 21.26C32.23 22.14 33.51 23.38 34.41 24.98C35.33 26.56 35.79 28.39 35.79 30.47C35.79 32.53 35.33 34.36 34.41 35.96C33.51 37.56 32.22 38.8 30.54 39.68C28.88 40.56 26.95 41 24.75 41H16.86V19.94H24.75ZM24.42 36.56C26.36 36.56 27.87 36.03 28.95 34.97C30.03 33.91 30.57 32.41 30.57 30.47C30.57 28.53 30.03 27.02 28.95 25.94C27.87 24.86 26.36 24.32 24.42 24.32H21.99V36.56H24.42ZM55.6369 32.36C55.6369 32.84 55.6069 33.34 55.5469 33.86H43.9369C44.0169 34.9 44.3469 35.7 44.9269 36.26C45.5269 36.8 46.2569 37.07 47.1169 37.07C48.3969 37.07 49.2869 36.53 49.7869 35.45H55.2469C54.9669 36.55 54.4569 37.54 53.7169 38.42C52.9969 39.3 52.0869 39.99 50.9869 40.49C49.8869 40.99 48.6569 41.24 47.2969 41.24C45.6569 41.24 44.1969 40.89 42.9169 40.19C41.6369 39.49 40.6369 38.49 39.9169 37.19C39.1969 35.89 38.8369 34.37 38.8369 32.63C38.8369 30.89 39.1869 29.37 39.8869 28.07C40.6069 26.77 41.6069 25.77 42.8869 25.07C44.1669 24.37 45.6369 24.02 47.2969 24.02C48.9169 24.02 50.3569 24.36 51.6169 25.04C52.8769 25.72 53.8569 26.69 54.5569 27.95C55.2769 29.21 55.6369 30.68 55.6369 32.36ZM50.3869 31.01C50.3869 30.13 50.0869 29.43 49.4869 28.91C48.8869 28.39 48.1369 28.13 47.2369 28.13C46.3769 28.13 45.6469 28.38 45.0469 28.88C44.4669 29.38 44.1069 30.09 43.9669 31.01H50.3869ZM67.0732 36.2L70.7032 24.26H76.1632L70.2232 41H63.8932L57.9532 24.26H63.4432L67.0732 36.2ZM95.3025 32.36C95.3025 32.84 95.2725 33.34 95.2125 33.86H83.6025C83.6825 34.9 84.0125 35.7 84.5925 36.26C85.1925 36.8 85.9225 37.07 86.7825 37.07C88.0625 37.07 88.9525 36.53 89.4525 35.45H94.9125C94.6325 36.55 94.1225 37.54 93.3825 38.42C92.6625 39.3 91.7525 39.99 90.6525 40.49C89.5525 40.99 88.3225 41.24 86.9625 41.24C85.3225 41.24 83.8625 40.89 82.5825 40.19C81.3025 39.49 80.3025 38.49 79.5825 37.19C78.8625 35.89 78.5025 34.37 78.5025 32.63C78.5025 30.89 78.8525 29.37 79.5525 28.07C80.2725 26.77 81.2725 25.77 82.5525 25.07C83.8325 24.37 85.3025 24.02 86.9625 24.02C88.5825 24.02 90.0225 24.36 91.2825 25.04C92.5425 25.72 93.5225 26.69 94.2225 27.95C94.9425 29.21 95.3025 30.68 95.3025 32.36ZM90.0525 31.01C90.0525 30.13 89.7525 29.43 89.1525 28.91C88.5525 28.39 87.8025 28.13 86.9025 28.13C86.0425 28.13 85.3125 28.38 84.7125 28.88C84.1325 29.38 83.7725 30.09 83.6325 31.01H90.0525ZM109.409 24.08C111.369 24.08 112.929 24.72 114.089 26C115.269 27.26 115.859 29 115.859 31.22V41H110.759V31.91C110.759 30.79 110.469 29.92 109.889 29.3C109.309 28.68 108.529 28.37 107.549 28.37C106.569 28.37 105.789 28.68 105.209 29.3C104.629 29.92 104.339 30.79 104.339 31.91V41H99.2088V24.26H104.339V26.48C104.859 25.74 105.559 25.16 106.439 24.74C107.319 24.3 108.309 24.08 109.409 24.08ZM129.954 36.65V41H127.344C125.484 41 124.034 40.55 122.994 39.65C121.954 38.73 121.434 37.24 121.434 35.18V28.52H119.394V24.26H121.434V20.18H126.564V24.26H129.924V28.52H126.564V35.24C126.564 35.74 126.684 36.1 126.924 36.32C127.164 36.54 127.564 36.65 128.124 36.65H129.954ZM136.591 22.52C135.691 22.52 134.951 22.26 134.371 21.74C133.811 21.2 133.531 20.54 133.531 19.76C133.531 18.96 133.811 18.3 134.371 17.78C134.951 17.24 135.691 16.97 136.591 16.97C137.471 16.97 138.191 17.24 138.751 17.78C139.331 18.3 139.621 18.96 139.621 19.76C139.621 20.54 139.331 21.2 138.751 21.74C138.191 22.26 137.471 22.52 136.591 22.52ZM139.141 24.26V41H134.011V24.26H139.141Z" fill="white"/>
</g>
<defs>
<clipPath id="clip0_436_28">
<rect width="141" height="42" fill="white"/>
</clipPath>
</defs>
</svg>
