<?xml version="1.0" encoding="UTF-8"?>
<svg width="91px" height="92px" viewBox="0 0 91 92" version="1.1" xmlns="http://www.w3.org/2000/svg" xmlns:xlink="http://www.w3.org/1999/xlink">
    <!-- Generator: Sketch 52.2 (67145) - http://www.bohemiancoding.com/sketch -->
    <title>Rating</title>
    <desc>Created with Sketch.</desc>
    <g id="Page-1" stroke="none" stroke-width="1" fill="none" fill-rule="evenodd" opacity="0.148607337">
        <g id="Home_3_alternative_conference" transform="translate(-701.000000, -4734.000000)" fill="#FFFFFF" fill-rule="nonzero">
            <g id="numbers" transform="translate(-1.000000, 4668.000000)">
                <path d="M791.650205,96.3872453 C791.349178,95.4643064 790.558983,94.8050643 789.599461,94.6543804 L761.001937,90.5859151 L748.133051,64.6871193 C747.700325,63.8206868 746.81606,63.2744577 745.856537,63.2744577 C744.897015,63.2744577 744.01275,63.8206868 743.580024,64.7059548 L730.880465,90.6800925 L702.282941,94.9369127 C701.323419,95.0875966 700.533224,95.7468387 700.232197,96.6697776 C699.931171,97.5927165 700.194569,98.6098329 700.890693,99.2690749 L721.642712,119.404211 L716.845101,147.92114 C716.675774,148.88175 717.070871,149.84236 717.861066,150.407424 C718.293792,150.727628 718.820588,150.897147 719.347385,150.897147 C719.761296,150.897147 720.156394,150.80297 720.532677,150.595779 L746.063493,137.053064 L771.669566,150.445095 C772.045849,150.63345 772.440947,150.727628 772.836044,150.727628 C774.228292,150.727628 775.375956,149.578663 775.375956,148.184837 C775.375956,147.977646 775.357141,147.789292 775.300699,147.600937 L770.352575,119.253528 L790.972895,99.0053781 C791.706647,98.3273006 791.951231,97.3101842 791.650205,96.3872453 Z M765.874804,116.560053 C765.272751,117.143953 765.009353,117.99155 765.159866,118.820311 L769.468309,143.551307 L747.229971,131.929811 C746.496219,131.534266 745.611953,131.553101 744.859387,131.929811 L722.696305,143.683155 L726.854235,118.914489 C726.985934,118.085727 726.722536,117.256966 726.120483,116.673066 L708.134145,99.193733 L732.950023,95.5019774 C733.777846,95.370129 734.492784,94.8615708 734.850253,94.1081513 L745.875351,71.5620723 L757.050963,94.0516448 C757.427246,94.8050643 758.142184,95.3136225 758.970007,95.4454709 L783.8047,98.9865426 L765.874804,116.560053 Z" id="Rating" transform="translate(745.942572, 107.085802) rotate(23.000000) translate(-745.942572, -107.085802) "></path>
            </g>
        </g>
    </g>
</svg>