<?xml version="1.0" encoding="UTF-8"?>
<svg width="87px" height="78px" viewBox="0 0 87 78" version="1.1" xmlns="http://www.w3.org/2000/svg" xmlns:xlink="http://www.w3.org/1999/xlink">
    <!-- Generator: Sketch 52.2 (67145) - http://www.bohemiancoding.com/sketch -->
    <title>Workshop</title>
    <desc>Created with Sketch.</desc>
    <g id="Page-1" stroke="none" stroke-width="1" fill="none" fill-rule="evenodd" opacity="0.183650362">
        <g id="Home_3_alternative_conference" transform="translate(-1046.000000, -4740.000000)" fill="#FFFFFF" fill-rule="nonzero">
            <g id="numbers" transform="translate(-1.000000, 4668.000000)">
                <g id="Workshop" transform="translate(1047.000000, 72.000000)">
                    <path d="M74.8387097,0 L12.1612903,0 C6.28645161,0 0,3.20625 0,12.1875 L0,54.3 C0,63.28125 6.28645161,66.4875 12.1612903,66.4875 L35.3612903,66.4875 L35.3612903,74.25 L31.5070968,74.25 C30.4738548,74.25 29.636129,75.0895312 29.636129,76.125 C29.636129,77.1604687 30.4738548,78 31.5070968,78 L56.203871,78 C57.2371129,78 58.0748387,77.1604687 58.0748387,76.125 C58.0748387,75.0895312 57.2371129,74.25 56.203871,74.25 L51.6387097,74.25 L51.6387097,66.4875 L74.8387097,66.4875 C83.8006452,66.4875 87,60.1875 87,54.3 L87,12.1875 C87,3.20625 80.7135484,0 74.8387097,0 Z M47.8967742,74.25 L39.1032258,74.25 L39.1032258,66.4875 L47.8967742,66.4875 L47.8967742,74.25 Z M83.2580645,54.3 C83.2580645,56.83125 82.4348387,62.7375 74.8387097,62.7375 L12.1612903,62.7375 C9.63548387,62.7375 3.74193548,61.9125 3.74193548,54.3 L3.74193548,51.61875 L83.2580645,51.61875 L83.2580645,54.3 Z M83.2580645,47.8875 L3.74193548,47.8875 L3.74193548,12.2625 C3.74193548,4.65 9.63548387,3.825 12.1612903,3.825 L74.8387097,3.825 C77.3645161,3.825 83.2580645,4.65 83.2580645,12.2625 L83.2580645,47.8875 Z" id="Shape"></path>
                    <path d="M74.249171,9.36929242 C73.4190495,8.75849464 72.2403803,8.92235599 71.6166141,9.73521874 C71.615909,9.73613931 71.6152039,9.73682974 71.6147338,9.73775031 L71.7087453,9.73775031 L57.6822298,28.1491377 L51.1014249,19.7719565 C50.758753,19.3353764 50.2344039,19.0718635 49.6724502,19.0539124 C49.1128467,19.0382627 48.575101,19.2679447 48.2058708,19.6798995 L37.488325,31.6104786 L29.6289638,18.464748 C29.2938128,17.9112556 28.6879087,17.5692641 28.0307683,17.56259 C27.3708076,17.5589077 26.7569125,17.8942251 26.4137705,18.4463366 L13.4401838,38.9750336 C12.7724671,39.7538353 12.8761148,40.9151335 13.6714521,41.5689679 C14.4667894,42.2228023 15.6527444,42.1213095 16.3204611,41.3425078 C16.4551325,41.1855508 16.5618356,41.0076507 16.6365747,40.8161723 L27.9179545,22.8098354 L35.4388743,35.4952813 C35.9632235,36.3730442 37.1148643,36.6680867 38.011264,36.1546391 C38.1814248,36.0570588 38.3348985,35.9339326 38.4660446,35.7898635 L49.408983,23.8040503 L56.1214039,32.3469341 C56.5054409,32.7726974 57.0467121,33.0309171 57.6255879,33.0649782 C58.2108095,33.0592246 58.7598366,32.7869662 59.1109696,32.3285227 L74.6228667,11.9471168 C75.246633,11.134254 75.0792926,9.98009019 74.249171,9.36929242 Z" id="Shape"></path>
                </g>
            </g>
        </g>
    </g>
</svg>